<?xml version="1.0" encoding="utf-8"?>
<!-- Generator: Adobe Illustrator 25.0.1, SVG Export Plug-In . SVG Version: 6.00 Build 0)  -->
<svg version="1.1" id="iconz1472908107814012100" xmlns="http://www.w3.org/2000/svg" xmlns:xlink="http://www.w3.org/1999/xlink"
	 x="0px" y="0px" viewBox="0 0 512 512" style="enable-background:new 0 0 512 512;" xml:space="preserve">
<style type="text/css">
	.st0{fill:#8DA6C9;}
	.st1{fill:#FFFFFF;}
	.st2{fill:#7496CB;}
	.st3{fill:#FBFBFB;}
	.st4{fill:#FFDFCA;}
	.st5{fill:#94A0DF;}
	.st6{fill:none;}
	.st7{fill:#131316;}
	.st8{fill:#BDC7D6;}
	.st9{fill:#FF94A6;}
</style>
<g>
	<g>
		<rect x="-66.6" y="-93.6" class="st0" width="665.1" height="665.1"/>
		<g>
			<circle class="st1" cx="-32.6" cy="-63.8" r="8"/>
			<circle class="st1" cx="-32.6" cy="16.8" r="8"/>
			<circle class="st1" cx="-32.6" cy="97.4" r="8"/>
			<circle class="st1" cx="-32.6" cy="178" r="8"/>
			<circle class="st1" cx="-32.6" cy="258.6" r="8"/>
			<circle class="st1" cx="-32.6" cy="339.2" r="8"/>
			<circle class="st1" cx="-32.6" cy="419.9" r="8"/>
			<circle class="st1" cx="-32.6" cy="500.4" r="8"/>
			<circle class="st1" cx="42" cy="-23.5" r="8"/>
			<circle class="st1" cx="42" cy="57.1" r="8"/>
			<circle class="st1" cx="42" cy="137.7" r="8"/>
			<circle class="st1" cx="42" cy="218.3" r="8"/>
			<circle class="st1" cx="42" cy="298.9" r="8"/>
			<circle class="st1" cx="42" cy="379.5" r="8"/>
			<circle class="st1" cx="42" cy="460.2" r="8"/>
			<ellipse transform="matrix(2.415434e-03 -1 1 2.415434e-03 -498.8413 581.4676)" class="st1" cx="42" cy="540.8" rx="8" ry="8"/>
			<circle class="st1" cx="116.6" cy="-63.8" r="8"/>
			<circle class="st1" cx="116.6" cy="16.8" r="8"/>
			<circle class="st1" cx="116.6" cy="97.4" r="8"/>
			<circle class="st1" cx="116.6" cy="178" r="8"/>
			<circle class="st1" cx="116.6" cy="258.6" r="8"/>
			<circle class="st1" cx="116.6" cy="339.2" r="8"/>
			<circle class="st1" cx="116.6" cy="419.9" r="8"/>
			<circle class="st1" cx="116.6" cy="500.4" r="8"/>
			<circle class="st1" cx="191.3" cy="-23.5" r="8"/>
			<circle class="st1" cx="191.3" cy="57.1" r="8"/>
			<circle class="st1" cx="191.3" cy="137.7" r="8"/>
			<circle class="st1" cx="191.3" cy="218.3" r="8"/>
			<circle class="st1" cx="191.3" cy="298.9" r="8"/>
			<circle class="st1" cx="191.3" cy="379.5" r="8"/>
			<circle class="st1" cx="191.3" cy="460.2" r="8"/>
			<circle class="st1" cx="191.3" cy="540.8" r="8"/>
			<circle class="st1" cx="265.9" cy="-63.8" r="8"/>
			<circle class="st1" cx="265.9" cy="16.8" r="8"/>
			<circle class="st1" cx="265.9" cy="97.4" r="8"/>
			<circle class="st1" cx="265.9" cy="178" r="8"/>
			<circle class="st1" cx="265.9" cy="258.6" r="8"/>
			<circle class="st1" cx="265.9" cy="339.2" r="8"/>
			<circle class="st1" cx="265.9" cy="419.9" r="8"/>
			<circle class="st1" cx="265.9" cy="500.4" r="8"/>
			<circle class="st1" cx="340.5" cy="-23.5" r="8"/>
			<circle class="st1" cx="340.5" cy="57.1" r="8"/>
			<circle class="st1" cx="340.5" cy="137.7" r="8"/>
			<circle class="st1" cx="340.5" cy="218.3" r="8"/>
			<circle class="st1" cx="340.5" cy="298.9" r="8"/>
			<circle class="st1" cx="340.5" cy="379.5" r="8"/>
			<circle class="st1" cx="340.5" cy="460.2" r="8"/>
			<circle class="st1" cx="340.5" cy="540.8" r="8"/>
			<circle class="st1" cx="415.2" cy="-63.8" r="8"/>
			<circle class="st1" cx="415.2" cy="16.8" r="8"/>
			<circle class="st1" cx="415.2" cy="97.4" r="8"/>
			<circle class="st1" cx="415.2" cy="178" r="8"/>
			<circle class="st1" cx="415.2" cy="258.6" r="8"/>
			<circle class="st1" cx="415.2" cy="339.2" r="8"/>
			<circle class="st1" cx="415.2" cy="419.9" r="8"/>
			<circle class="st1" cx="415.2" cy="500.4" r="8"/>
			<circle class="st1" cx="564.4" cy="-63.8" r="8"/>
			<circle class="st1" cx="564.4" cy="16.8" r="8"/>
			<circle class="st1" cx="564.4" cy="97.4" r="8"/>
			<circle class="st1" cx="564.4" cy="178" r="8"/>
			<circle class="st1" cx="564.4" cy="258.6" r="8"/>
			<circle class="st1" cx="564.4" cy="339.2" r="8"/>
			<circle class="st1" cx="564.4" cy="419.9" r="8"/>
			<circle class="st1" cx="564.4" cy="500.4" r="8"/>
			<ellipse transform="matrix(0.2298 -0.9732 0.9732 0.2298 400.1739 458.6037)" class="st1" cx="489.8" cy="-23.5" rx="8" ry="8"/>
			<ellipse transform="matrix(0.2076 -0.9782 0.9782 0.2076 332.2433 524.4306)" class="st1" cx="489.8" cy="57.1" rx="8" ry="8"/>
			<ellipse transform="matrix(0.2298 -0.9732 0.9732 0.2298 243.253 582.7938)" class="st1" cx="489.8" cy="137.7" rx="8" ry="8"/>
			<ellipse transform="matrix(0.1602 -0.9871 0.9871 0.1602 195.8906 666.8209)" class="st1" cx="489.8" cy="218.3" rx="8" ry="8"/>
			<ellipse transform="matrix(0.1602 -0.9871 0.9871 0.1602 116.2724 734.5603)" class="st1" cx="489.8" cy="298.9" rx="8" ry="8"/>
			<ellipse transform="matrix(0.1602 -0.9871 0.9871 0.1602 36.7385 802.2281)" class="st1" cx="489.8" cy="379.5" rx="8" ry="8"/>
			<ellipse transform="matrix(0.1602 -0.9871 0.9871 0.1602 -42.8797 869.9675)" class="st1" cx="489.8" cy="460.2" rx="8" ry="8"/>
			
				<ellipse transform="matrix(0.9239 -0.3827 0.3827 0.9239 -169.6534 228.6095)" class="st1" cx="489.8" cy="540.8" rx="8" ry="8"/>
		</g>
	</g>
	<g>
		<rect x="-66.6" y="-5.7" class="st0" width="665.1" height="665.1"/>
		<g>
			<circle class="st1" cx="-32.6" cy="24.2" r="8"/>
			<circle class="st1" cx="-32.6" cy="104.7" r="8"/>
			<circle class="st1" cx="-32.6" cy="185.3" r="8"/>
			<circle class="st1" cx="-32.6" cy="266" r="8"/>
			<circle class="st1" cx="-32.6" cy="346.6" r="8"/>
			<circle class="st1" cx="-32.6" cy="427.1" r="8"/>
			<circle class="st1" cx="-32.6" cy="507.8" r="8"/>
			<circle class="st1" cx="-32.6" cy="588.4" r="8"/>
			<circle class="st1" cx="42" cy="64.4" r="8"/>
			<circle class="st1" cx="42" cy="145.1" r="8"/>
			<circle class="st1" cx="42" cy="225.7" r="8"/>
			<circle class="st1" cx="42" cy="306.2" r="8"/>
			<circle class="st1" cx="42" cy="386.9" r="8"/>
			<circle class="st1" cx="42" cy="467.5" r="8"/>
			<circle class="st1" cx="42" cy="548.1" r="8"/>
			<ellipse transform="matrix(2.415434e-03 -1 1 2.415434e-03 -586.7798 669.1939)" class="st1" cx="42" cy="628.7" rx="8" ry="8"/>
			<circle class="st1" cx="116.6" cy="24.2" r="8"/>
			<circle class="st1" cx="116.6" cy="104.7" r="8"/>
			<circle class="st1" cx="116.6" cy="185.3" r="8"/>
			<circle class="st1" cx="116.6" cy="266" r="8"/>
			<circle class="st1" cx="116.6" cy="346.6" r="8"/>
			<circle class="st1" cx="116.6" cy="427.1" r="8"/>
			<circle class="st1" cx="116.6" cy="507.8" r="8"/>
			<circle class="st1" cx="116.6" cy="588.4" r="8"/>
			<circle class="st1" cx="191.3" cy="64.4" r="8"/>
			<circle class="st1" cx="191.3" cy="145.1" r="8"/>
			<circle class="st1" cx="191.3" cy="225.7" r="8"/>
			<circle class="st1" cx="191.3" cy="306.2" r="8"/>
			<circle class="st1" cx="191.3" cy="386.9" r="8"/>
			<circle class="st1" cx="191.3" cy="467.5" r="8"/>
			<circle class="st1" cx="191.3" cy="548.1" r="8"/>
			<circle class="st1" cx="191.3" cy="628.7" r="8"/>
			<circle class="st1" cx="265.9" cy="24.2" r="8"/>
			<circle class="st1" cx="265.9" cy="104.7" r="8"/>
			<circle class="st1" cx="265.9" cy="185.3" r="8"/>
			<circle class="st1" cx="265.9" cy="266" r="8"/>
			<circle class="st1" cx="265.9" cy="346.6" r="8"/>
			<circle class="st1" cx="265.9" cy="427.1" r="8"/>
			<circle class="st1" cx="265.9" cy="507.8" r="8"/>
			<circle class="st1" cx="265.9" cy="588.4" r="8"/>
			<circle class="st1" cx="340.5" cy="64.4" r="8"/>
			<circle class="st1" cx="340.5" cy="145.1" r="8"/>
			<circle class="st1" cx="340.5" cy="225.7" r="8"/>
			<circle class="st1" cx="340.5" cy="306.2" r="8"/>
			<circle class="st1" cx="340.5" cy="386.9" r="8"/>
			<circle class="st1" cx="340.5" cy="467.5" r="8"/>
			<circle class="st1" cx="340.5" cy="548.1" r="8"/>
			<circle class="st1" cx="340.5" cy="628.7" r="8"/>
			<circle class="st1" cx="415.2" cy="24.2" r="8"/>
			<circle class="st1" cx="415.2" cy="104.7" r="8"/>
			<circle class="st1" cx="415.2" cy="185.3" r="8"/>
			<circle class="st1" cx="415.2" cy="266" r="8"/>
			<circle class="st1" cx="415.2" cy="346.6" r="8"/>
			<circle class="st1" cx="415.2" cy="427.1" r="8"/>
			<circle class="st1" cx="415.2" cy="507.8" r="8"/>
			<circle class="st1" cx="415.2" cy="588.4" r="8"/>
			<circle class="st1" cx="564.4" cy="24.2" r="8"/>
			<circle class="st1" cx="564.4" cy="104.7" r="8"/>
			<circle class="st1" cx="564.4" cy="185.3" r="8"/>
			<circle class="st1" cx="564.4" cy="266" r="8"/>
			<circle class="st1" cx="564.4" cy="346.6" r="8"/>
			<circle class="st1" cx="564.4" cy="427.1" r="8"/>
			<circle class="st1" cx="564.4" cy="507.8" r="8"/>
			<circle class="st1" cx="564.4" cy="588.4" r="8"/>
			<ellipse transform="matrix(0.2298 -0.9732 0.9732 0.2298 314.5876 526.3382)" class="st1" cx="489.8" cy="64.4" rx="8" ry="8"/>
			<ellipse transform="matrix(0.2076 -0.9782 0.9782 0.2076 246.2203 594.114)" class="st1" cx="489.8" cy="145.1" rx="8" ry="8"/>
			<ellipse transform="matrix(0.2298 -0.9732 0.9732 0.2298 157.6667 650.5283)" class="st1" cx="489.8" cy="225.7" rx="8" ry="8"/>
			<ellipse transform="matrix(0.1602 -0.9871 0.9871 0.1602 109.0874 740.6734)" class="st1" cx="489.8" cy="306.2" rx="8" ry="8"/>
			<ellipse transform="matrix(0.1602 -0.9871 0.9871 0.1602 29.4692 808.4128)" class="st1" cx="489.8" cy="386.9" rx="8" ry="8"/>
			<ellipse transform="matrix(0.1602 -0.9871 0.9871 0.1602 -50.0647 876.0806)" class="st1" cx="489.8" cy="467.5" rx="8" ry="8"/>
			<ellipse transform="matrix(0.1602 -0.9871 0.9871 0.1602 -129.6829 943.82)" class="st1" cx="489.8" cy="548.1" rx="8" ry="8"/>
			
				<ellipse transform="matrix(0.9239 -0.3827 0.3827 0.9239 -203.3061 235.3034)" class="st1" cx="489.8" cy="628.7" rx="8" ry="8"/>
		</g>
	</g>
	<g>
		<g>
			<path class="st2" d="M461.9,600.6H53.1c1.1-11,3.9-38,7.1-60.4c9.5-68.7,21.2-107.2,56.2-140.7c10.7-10.3,22.2-18.8,32.6-25.7
				c20.9-13.7,37.9-20.4,37.9-20.4s0.1,0,0.1-0.1c3.8-2,6.9-3.7,9.9-5c1.7-0.7,3.3-1.3,5-1.8c9.4-2.8,22.1-3.2,55.6-3.7
				c33.5,0.5,46.3,1,55.6,3.7c1.7,0.6,3.4,1.1,5,1.8c3.1,1.3,6.1,2.9,10,5l0,0c0.7,0.3,17.4,7,37.9,20.4
				c10.5,6.8,21.8,15.3,32.6,25.6c34.9,33.5,48.3,64,55.7,137.6C457,559.8,460.5,589,461.9,600.6z"/>
			<polygon class="st2" points="315.6,381.2 293,600.6 222.2,600.6 201.2,383.2 258.4,465.5 315,382.1 			"/>
			<path class="st3" d="M257.4,461.7c-4.7-6.8-76.9-108.7-76.9-108.7h155.4L257.4,461.7z"/>
			<path class="st4" d="M257.6,432.4c-3.8-5.3-60.7-85.8-60.7-85.8h122.7L257.6,432.4z"/>
			<path class="st5" d="M222.2,600.6H171l-22-225.4c0-0.5,0-0.8,0-1.3c0.1-2.9,1.7-5.6,4.4-7.1l31.6-17.1c3.1-1.7,11.3-4.6,11.9-1.3
				v0.1L222.2,600.6z"/>
			<path class="st5" d="M366.3,373.9c0,0.5,0,0.8,0,1.3l-22,225.4H293L315,382.2l3.4-33.6v-0.1c0.6-3.3,8.8-0.5,11.9,1.3l31.6,17.1
				C364.5,368.2,366.2,370.9,366.3,373.9z"/>
			<line class="st6" x1="314.9" y1="383.2" x2="217.9" y2="519.8"/>
			<line class="st6" x1="307" y1="451.5" x2="219.3" y2="572"/>
			<line class="st6" x1="201.2" y1="383.2" x2="258.2" y2="463.5"/>
			<line class="st6" x1="209" y1="451.5" x2="238" y2="491.4"/>
			<line class="st6" x1="203.5" y1="355.9" x2="257.6" y2="432.4"/>
			<line class="st6" x1="314.9" y1="357.3" x2="247.1" y2="447.9"/>
			<g>
				<path class="st7" d="M213.4,464l19.9,27.4l-15.1,21.2L213.4,464z M205.1,382.2l-2.1-21.3l51,72.1l-6.5,8.7L205.1,382.2z
					 M238,484.8c-0.7-0.9-25.3-35-26.2-35.9l-5.1-51.1l46.5,65.5L238,484.8z M258,456.7l-6.5-9.2l60.1-80.4l-1.7,16.4L258,456.7z
					 M313.9,346.6c-0.2,0.5-0.3,1-0.4,1.5l-0.6,6.5c-1.2,0.9-53.8,72-54.7,72.9l-52-73.6c-0.9-1.3-2.6-1.7-3.9-1.1l-0.5-4.8
					c-0.1-0.5-0.2-0.9-0.4-1.5L313.9,346.6L313.9,346.6z M223,560.4l-3.8-37.1c0.6-0.3,1.3-0.7,1.7-1.4l39.4-55.4
					c0.7-0.6,1.2-1.2,1.4-2l46.6-65.6l-5.1,51L223,560.4z M459.8,539.5c-9.5-75.1-26.2-128.1-89.1-168.6c-0.9-3.6-3.3-6.6-6.6-8.4
					l-31.6-17.1c-3.8-1.8-9-3.9-13.5-3.2c-0.6,0.1-1.2,0.3-1.8,0.6c-6.9-2.4-12.2-3-22.5-3.8c-8.7-0.6-20.6-0.8-37.3-1
					c-16.8,0.2-28.4,0.5-37.1,1c-10.2,0.7-15.6,1.4-22.5,3.8c-5-2.1-10.8,0.6-15.3,2.6l-31.4,17.1l0,0c-3.3,1.8-5.7,4.9-6.6,8.4
					c-30.6,19.5-58.4,49.6-70.6,85c-14,33.5-21.9,108.8-25.6,144.6h9.7C61.9,564.2,69.3,492,83,459.3c11.3-32,34.4-58.3,61.8-76.9
					L166,600.5h9.7l-22-225.9v-0.4c0-1.4,0.7-2.7,1.9-3.3c3.4-1.6,33.7-19,36.7-19l25,248.4h9.7l-2.8-28.6L301.8,465l-13.6,135.3
					h9.7l25-248.4c1.7,0.4,4,1.3,5.2,2l31.4,17c1.2,0.6,1.9,1.9,1.9,3.3v0.4l-22,225.9h9.7l21.3-218.1
					c27.4,18.6,50.5,44.9,61.9,76.9c14.2,36.3,20.3,98.2,24.9,141.2h9.7C465.8,589.8,462.8,562.4,459.8,539.5z"/>
				<path class="st7" d="M116.5,556.4v44.1h-9.7v-44.1c0-2.7,2.2-4.9,4.9-4.9C114.3,551.6,116.5,553.8,116.5,556.4z"/>
				<path class="st7" d="M408.5,556.4v44.1h-9.7v-44.1c0-2.7,2.2-4.9,4.9-4.9C406.3,551.6,408.5,553.8,408.5,556.4z"/>
			</g>
			
				<ellipse transform="matrix(3.327790e-02 -0.9994 0.9994 3.327790e-02 -401.1266 649.3297)" class="st8" cx="135.1" cy="532" rx="13.9" ry="13.9"/>
			<circle class="st8" cx="377.4" cy="532" r="13.9"/>
		</g>
	</g>
	<g>
		<path class="st4" d="M371.8,185.4h-1.1C366.2,116.1,332.8,60.6,257,60.6s-109.2,55.5-113.7,124.8h-1.1c-14.8-8.8-36.4,8.1-33,28.4
			c7.1,42.7,9.9,53.3,22.6,59.7c6.5,3.3,12.4,3.4,12.4,3.4s15.5,47.1,26.3,62.1c16.5,23,57.6,38.9,86.5,38.9s67.3-18,86.5-38.9
			c16.9-18.5,26.3-62.1,26.3-62.1s5.9-0.1,12.4-3.4c12.7-6.4,15.5-17,22.6-59.7C408.2,193.4,386.7,176.6,371.8,185.4z"/>
		<path class="st7" d="M407.9,197.1c-5.4-12.4-18.8-21.8-32.4-18.8c-4.7-67.1-45-124.7-118.5-123c-73.3-1.6-113.6,55.3-118.5,123
			c-20-4.2-38.2,16.8-34.5,36.4l0,0c5.8,26.6,4.5,61.7,35.9,67c18.9,134.5,215.2,134.6,234.1,0c21.1-3.3,27.7-20.8,31.2-40.7
			C406.7,229.6,414,210.1,407.9,197.1z M399.6,212.9c-2.7,15.8-4.3,26.7-7.9,39.3c-2.4,9.1-7.4,16.1-16.5,18.4
			c0.6-6.9,1-14.6,1.3-23.7c0.1-2.9-2.2-5.4-5.1-5.5s-5.4,2.2-5.5,5.1l0,0c-1.7,35.6-1.9,49.3-16.8,75.4
			c-39.4,66.9-145,66.9-184.4,0c-14.7-24.8-15.5-43.7-16.8-75.4c-0.1-2.9-2.5-5.2-5.5-5.1c-2.9,0.1-5.2,2.5-5.1,5.5
			c0.3,9,0.7,16.8,1.3,23.6c-14.7-4-16.4-17.3-19.7-31.7c-1.4-6.9-2.9-15.4-4.7-25.9c-0.7-4-0.1-8.1,1.4-11.7
			c3.5-8.2,13-15.4,21.9-12.2c-0.2,4.3-0.3,8.6-0.3,13c0,6.9,10.5,6.9,10.6,0l0,0c0.1-46.9,12-97.9,53.9-122.8
			c37.4-22.1,102.5-17.6,131.6,17.5c24.6,27.8,32.3,66.8,32.5,105.2c0,6.8,10.6,6.9,10.6,0c0-4.4-0.1-8.7-0.3-13
			C389.3,184.7,402.2,200.1,399.6,212.9z"/>
	</g>
	<g>
		<path class="st7" d="M257,46.7c-102.4,1.5-156.4,72-156.4,176c0,58.7,3,163.1,4.9,223.6c0.8,26.1,22.2,46.8,48.3,46.8h9.2v-152
			l-22.4-59.2c0,0-22.4-15.1-24-20.5c-4.3-14.5,0.7-30.1,12.4-39.5c6.7-5.5,16.7-2.5,19.6,5.4l1.6,25.8c0,0,14.7-29.4,14.5-36
			l15.9-16.8c0,0,7.5,0,19,0c1.5-10.4,6.3-38.2,14.6-50.4c-3.6,24-2.7,42.6-2,50.4c6.7,0,14.1,0,21.7,0c1.1-11.8,4.7-45.3,13.3-60.2
			c-2.8,29.6-0.5,51.9,0.6,60.2c9.1,0,18.2,0,26.6,0c-1.3-11.8-4.5-44.9-2.1-60c3.2,30.1,8.2,52.4,10,60c6.2,0,11.8,0,16.6,0
			c-1.3-15-2.7-36.6-0.9-48c2.2,20.2,5.1,36.9,7.4,48c2,0,3.7,0,5.1,0c20.8,0,43.7,8,43.7,60.8s6.4,232,6.4,232h7.8
			c26.5,0,48.1-21.3,48.3-47.8c0.8-82.7,1.3-247-7-285C398.2,109.1,362.6,45.1,257,46.7z"/>
	</g>
	<g>
		<g>
			<path class="st7" d="M291.5,310.1c-5.9,2.1-0.9,2.5-7.6,8.5c-2.9,2.5-8.2,0.4-13.4-3c-8.2-5.3-18.7-5.3-26.9,0
				c-5.1,3.3-10.5,5.5-13.4,3c-6.8-5.9-1.7-6.4-7.6-8.5s-2.8,14.6,6.4,16.1c6.6,1.1,13.5-1.7,18.8-4.9c5.7-3.4,12.9-3.4,18.6,0
				c5.3,3.2,12.2,6,18.8,4.9C294.2,324.7,297.4,308,291.5,310.1z"/>
		</g>
	</g>
	<g>
		<path class="st7" d="M250,275.6c1.9,0,1.6,3.1,1.8,4.7c0.6,3.4,4.7,3,8.1,3c6,0,3.7,5,0,5s-12.5,1.1-12.5-2.7
			S246.1,275.6,250,275.6z"/>
	</g>
	<g>
		<g>
			<path class="st1" d="M209.6,280.3l-6.6-16.9c-1.8-4.5-5.4-8.1-9.9-9.9l-16.9-6.6l16.9-6.6c4.5-1.8,8.1-5.4,9.9-9.9l6.6-16.9
				l6.6,16.9c1.8,4.5,5.4,8.1,9.9,9.9l16.9,6.6l-16.9,6.6c-4.5,1.8-8.1,5.4-9.9,9.9L209.6,280.3z"/>
			<path class="st1" d="M304.4,280.3l-6.6-16.9c-1.8-4.5-5.4-8.1-9.9-9.9l-16.9-6.6l16.9-6.6c4.5-1.8,8.1-5.4,9.9-9.9l6.6-16.9
				l6.6,16.9c1.8,4.5,5.4,8.1,9.9,9.9l16.9,6.6l-16.9,6.6c-4.5,1.8-8.1,5.4-9.9,9.9L304.4,280.3z"/>
			<g>
				<path class="st7" d="M200,264.6c-1.4-3.7-4.4-6.6-8.1-8.1l-24.7-9.7l24.7-9.7c3.7-1.4,6.6-4.4,8.1-8.1l9.7-24.7l9.7,24.7
					c1.4,3.7,4.4,6.6,8.1,8.1l24.7,9.7l-24.7,9.7c-3.7,1.4-6.6,4.4-8.1,8.1l-9.7,24.7L200,264.6z M209.6,224c-0.4,0-0.7,0.2-0.8,0.5
					l-2.8,7c-2.1,5.4-6.4,9.7-11.8,11.8l-7,2.8c-0.3,0.1-0.5,0.4-0.5,0.8s0.2,0.7,0.5,0.8l7,2.8c5.4,2.1,9.7,6.4,11.8,11.8l2.8,7
					c0.1,0.3,0.4,0.5,0.8,0.5s0.7-0.2,0.8-0.5l2.8-7c2.1-5.4,6.4-9.7,11.8-11.8l7-2.8c0.3-0.1,0.5-0.4,0.5-0.8s-0.2-0.7-0.5-0.8
					l-7-2.8c-5.4-2.1-9.7-6.4-11.8-11.8l-2.8-7C210.3,224.2,210,224,209.6,224z"/>
				<path class="st7" d="M294.7,264.6c-1.4-3.7-4.4-6.6-8.1-8.1l-24.7-9.7l24.7-9.7c3.7-1.4,6.6-4.4,8.1-8.1l9.7-24.7l9.7,24.7
					c1.4,3.7,4.4,6.6,8.1,8.1l24.7,9.7l-24.7,9.7c-3.7,1.4-6.6,4.4-8.1,8.1l-9.7,24.7L294.7,264.6z M304.4,224
					c-0.4,0-0.7,0.2-0.8,0.6l-2.8,7c-2.1,5.4-6.4,9.7-11.8,11.8l-7,2.8c-0.3,0.1-0.5,0.4-0.5,0.8s0.2,0.7,0.5,0.8l7,2.8
					c5.4,2.1,9.7,6.4,11.8,11.8l2.8,7c0.1,0.3,0.5,0.5,0.8,0.5s0.7-0.2,0.8-0.5l2.8-7c2.1-5.4,6.4-9.7,11.8-11.8l7-2.8
					c0.3-0.1,0.5-0.4,0.5-0.8s-0.2-0.7-0.5-0.8l-7-2.8c-5.4-2.1-9.7-6.4-11.8-11.8l-2.8-7C305,224.2,304.7,224,304.4,224z"/>
			</g>
		</g>
	</g>
	<g>
		<g>
			<path class="st7" d="M241,210.5c-13.4,0.2-43.4-1-48.9,0.4c-3,0.8-8.3,7.4-6.4,7.4c4.5,0,55.3,0,55.3,0L241,210.5L241,210.5z"/>
			<path class="st7" d="M273,210.5c13.4,0.2,43.4-1,48.9,0.4c3,0.8,8.3,7.4,6.4,7.4c-4.1,0-55.3,0-55.3,0V210.5L273,210.5z"/>
		</g>
	</g>
	<g>
		<path class="st5" d="M379.4,193.5c-8.6-9.9-48.7-29.2-122.4-29.2s-113.8,19.3-122.4,29.2c-7.5,8.6-5,58.9-3.3,76.2
			c0.3,2.6,3.5,8,7.6,9.4c17.7,6.3,63.7,13.2,73.4,10.8c6.8-1.7,20.5-8.4,30.9-13.9c8.5-4.5,19.2-4.5,27.7,0
			c10.4,5.5,24,12.2,30.9,13.9c9.7,2.4,55.7-4.5,73.4-10.8c4.1-1.4,7.3-6.8,7.6-9.4C384.4,252.4,386.8,202.2,379.4,193.5z"/>
		<path class="st7" d="M387.7,207.1c-0.4-3.5-0.9-6.6-1.7-9.3c-0.8-2.7-1.7-5-3.3-7l0,0c-1.4-1.6-3.2-3.2-5.5-4.8
			c-4-2.8-9.3-5.8-16.2-8.7c-20.8-8.9-55.2-17.3-104-17.3c-37.2,0-66.1,4.9-86.8,11.1c-10.4,3.1-18.8,6.5-25.2,9.9
			c-3.2,1.7-5.9,3.3-8.2,5c-2.3,1.6-4.1,3.2-5.5,4.8c-1.7,2-2.6,4.3-3.3,7c-1.1,4.1-1.8,9.1-2.2,14.7c-0.4,5.6-0.6,11.9-0.6,18.2
			c0,15.3,1,31.1,1.8,39.5c0.1,1.4,0.6,2.5,1.1,3.7c0.8,1.8,2,3.6,3.5,5.3c1.5,1.7,3.4,3.2,5.9,4.1c4.1,1.4,9.3,2.8,15.2,4.2
			c8.8,2,19.1,3.8,28.7,5.2c9.6,1.3,18.6,2.2,24.9,2.2c2.8,0,5-0.1,7-0.6l0,0c2-0.5,4.3-1.3,6.8-2.3c7.5-3,17.2-7.9,25.1-12
			c3.6-1.9,7.7-2.9,11.8-2.9s8.2,1,11.8,2.9c5.3,2.8,11.3,5.8,17,8.5c2.8,1.3,5.6,2.5,8.1,3.5s4.8,1.8,6.8,2.3s4.3,0.6,7,0.6
			c4.3,0,9.6-0.4,15.6-1c9-1,19.3-2.5,28.8-4.4c9.6-1.9,18.3-4,24.4-6.1c1.6-0.6,3-1.5,4.2-2.5c1.8-1.5,3.2-3.3,4.2-5.1
			c0.5-0.9,1-1.8,1.3-2.7c0.3-0.9,0.6-1.8,0.7-2.8c0.8-8.4,1.8-24.2,1.8-39.5C388.8,222.2,388.5,214,387.7,207.1z M378.4,269.3
			c0,0.1-0.1,0.6-0.4,1.2c-0.4,0.9-1.2,2-2,2.9s-1.7,1.5-2.3,1.7c-3.5,1.3-8.5,2.6-14.2,3.9c-8.5,1.9-18.6,3.7-28,5
			s-18.1,2.1-23.7,2.1c-2.4,0-4.3-0.2-4.9-0.4c-1.4-0.3-3.4-1-5.7-1.9c-6.9-2.7-16.5-7.5-24.2-11.6c-4.9-2.6-10.4-3.8-15.8-3.8
			c-5.5,0-10.9,1.3-15.8,3.8c-5.2,2.7-11.1,5.8-16.6,8.3c-2.7,1.3-5.3,2.4-7.6,3.3s-4.3,1.6-5.7,1.9c-0.7,0.2-2.6,0.4-4.9,0.4
			c-3.7,0-8.9-0.4-14.7-1c-8.7-0.9-18.8-2.5-28.1-4.3s-17.9-3.9-23.2-5.8c-0.4-0.1-0.9-0.4-1.5-0.9c-0.9-0.7-1.7-1.8-2.3-2.9
			c-0.3-0.5-0.5-1-0.7-1.4l-0.2-0.5v-0.1l0,0c-0.8-8.1-1.8-23.7-1.8-38.7c0-8.2,0.3-16.2,1.1-22.6c0.4-3.2,0.9-5.9,1.4-8
			s1.3-3.4,1.6-3.7c0.8-0.9,2.1-2.1,4-3.4c3.3-2.3,8.1-5.1,14.6-7.8c19.3-8.2,52.7-16.5,100.6-16.5c36.4,0,64.5,4.8,84.3,10.7
			c9.9,3,17.8,6.2,23.6,9.3c2.9,1.5,5.3,3,7.2,4.3c1.9,1.3,3.2,2.5,4,3.4l3.3-2.8l-3.3,2.8c0.3,0.3,1,1.6,1.6,3.7
			c0.9,3.1,1.5,7.7,1.9,13.1c0.4,5.3,0.6,11.4,0.6,17.5C380.1,245.6,379.2,261.3,378.4,269.3z"/>
		<path class="st3" d="M218.3,183l-59.6,79.2c0,0-12.1-44.9,0-60.1C167.7,190.7,197.4,183.5,218.3,183z"/>
		<rect x="249.4" y="176.9" class="st7" width="15.2" height="6.1"/>
	</g>
	<ellipse class="st9" cx="169.6" cy="305.7" rx="17.5" ry="8.6"/>
	<ellipse class="st9" cx="340" cy="305.7" rx="17.5" ry="8.6"/>
</g>
</svg>
