<!--?xml version="1.0" encoding="utf-8"?-->
<svg version="1.1" x="0px" y="0px" id="iconz5621062015894664230069" viewBox="0 0 512 512" xmlns="http://www.w3.org/2000/svg" style="enable-background:new 0 0 512 512;" xml:space="preserve"><style type="text/css">
.baseF{fill:#FFE1E1}
.baseB{fill:#0B2A65}
.eyeF{fill:#FFFFFF}
.eyeB{fill:#0B2A65}
.eyeT{fill:#679ECE}
.hairF{fill:#FFFFFF}
.hairB{fill:#0B2A65}
.hairU{fill:#FFD516}
.hairT{fill:#679ECE}
.noseF{fill:#FFE1E1}
.noseB{fill:#0B2A65}
.noseU{fill:#FFD516}
.mayugeB{fill:#0B2A65}
.mayugeU{fill:#FFD516}
.mayugeT{fill:#679ECE}
.mayugeF{fill:#FFFFFF}
.mouthF{fill:#FFFFFF}
.mouthB{fill:#0B2A65}
.mouthT{fill:#679ECE}
.mouthU{fill:#FFD516}
.hatF{fill:#FFFFFF}
.hatB{fill:#0B2A65}
.hatU{fill:#FFD516}
.hatT{fill:#679ECE}
.higeU{fill:#FFD516}
.higeB{fill:#0B2A65}
.higeF{fill:#FFFFFF}
.bodyF{fill:#FFFFFF}
.bodyB{fill:#0B2A65}
.bodyU{fill:#FFD516}
.bodyT{fill:#679ECE}
.bodyS{fill:#F2B175}
.bodyH{fill:#FFE1E1}
.glassF{fill:#FFE1E1}
.glassB{fill:#0B2A65}
.glassT{fill:#679ECE}
.glassU{fill:#FFD516}
.kirakiraF{fill:#FFFFFF}
.kirakiraB{fill:#0B2A65}
.kirakiraU{fill:#FFD516}
.kirakiraT{fill:#679ECE}
.kirakiraH{fill:#FFFFFF}
.backF{fill:#FFFFFF}
.backB{fill:#0B2A65}
.backU{fill:#FFD516}
.backS{fill:#F2B175}
.backA{fill:#FFE38B}
.backG{fill:#EEEEEF}
.backC{fill:#19DB9F}
.backD{fill:#DBBCA1}
</style>
<g class="icosvg">
<g>
	<g>
		<rect x="-134" y="-134" class="backS" width="780" height="780"></rect>
	</g>
	<g>
		<g>
			<polygon class="backF" points="318.15,-134 -134,318.14 -134,191.83 191.83,-134 			"></polygon>
			<polygon class="backF" points="646,-31.03 646,95.29 95.29,646 -31.02,646 			"></polygon>
			<polygon class="backF" points="39.57,-134 -134,39.58 -134,-86.74 -86.75,-134 			"></polygon>
			<polygon class="backF" points="596.71,-134 -134,596.72 -134,470.4 470.41,-134 			"></polygon>
			<polygon class="backF" points="646,247.55 646,373.87 373.86,646 247.54,646 			"></polygon>
			<polygon class="backF" points="646,526.12 646,646 526.12,646 			"></polygon>
		</g>
		<g>
			<polygon class="backU" points="646,441.67 646,460.35 460.34,646 441.68,646 			"></polygon>
			<polygon class="backU" points="646,162.59 646,181.27 181.26,646 162.6,646 			"></polygon>
			<polygon class="backU" points="646,-116.49 646,-97.83 -97.82,646 -116.48,646 			"></polygon>
			<polygon class="backU" points="403.09,-134 -134,403.1 -134,384.43 384.43,-134 			"></polygon>
			<polygon class="backU" points="124.01,-134 -134,124.02 -134,105.35 105.35,-134 			"></polygon>
		</g>
	</g>
</g>


<g>
	<g>
		<path class="bodyT" d="M462.894,571.45v65.904H49.086V571.45c0-73.679,14.929-114.144,52.969-150.648
			c9.335-8.952,19.152-16.704,28.487-23.208c25.873-18.072,48.313-26.927,48.313-26.927c6.431-3.457,10.896-5.809,16.487-7.44
			c10.177-2.952,24.144-3.529,60.648-4.032c36.504,0.504,50.473,1.08,60.648,4.032c5.617,1.631,10.056,3.983,16.488,7.44
			c0,0,21.792,8.591,47.184,26.135c9.696,6.673,19.896,14.688,29.616,24C447.966,457.306,462.894,497.771,462.894,571.45z"></path>
		<path class="bodyU" d="M380.312,396.793c-14.834,19.922-46.61,37.561-71.498,47.834c-29.255,12.096-66.816,10.823-101.616,1.751
			c-23.496-6.12-53.662-26.543-76.655-48.792c25.87-18.07,48.312-26.927,48.312-26.927c6.431-3.457,10.896-5.808,16.488-7.439
			c10.177-2.953,24.143-3.53,60.647-4.034c36.504,0.504,50.473,1.08,60.647,4.034c5.618,1.631,10.057,3.982,16.491,7.439
			C333.127,370.657,354.919,379.25,380.312,396.793z"></path>
		<g>
			<path class="bodyB" d="M174.03,378.542c2.173-1.008,3.886-1.759,5.045-2.254c0.579-0.247,1.021-0.43,1.311-0.55l0.322-0.13
				l0.089-0.036l0.288-0.115l0.272-0.144c3.21-1.725,5.858-3.134,8.297-4.273c2.441-1.139,4.668-2.017,7.165-2.748
				c4.533-1.317,10.154-2.171,19.307-2.735c9.127-0.564,21.681-0.836,39.873-1.086c18.19,0.251,30.745,0.523,39.871,1.086
				c9.152,0.564,14.773,1.418,19.305,2.735c2.509,0.73,4.733,1.608,7.172,2.748c2.435,1.138,5.079,2.546,8.29,4.271l0.277,0.149
				l0.284,0.111l0.089,0.036c1.364,0.533,18.004,7.369,38.495,20.521c-17.664,19.256-35.98,31.948-54.457,39.986
				c-19.705,8.563-39.655,11.848-59.325,11.851c-19.672-0.004-39.623-3.288-59.327-11.851
				c-18.475-8.036-36.786-20.723-54.448-39.973c4.941-3.172,9.684-6.021,14.017-8.455
				C163.504,383.604,169.686,380.559,174.03,378.542z M392.309,416.037l-0.001-0.001c-21.782,24.949-44.463,41.055-67.361,51.016
				c-22.901,9.952-46.086,13.771-68.948,13.774c-22.863-0.004-46.05-3.823-68.95-13.774c-22.898-9.961-45.58-26.067-67.361-51.016
				c-0.68-0.778-1.512-1.329-2.407-1.697c5.238-4.349,10.495-8.34,15.641-11.958c18.933,20.964,38.967,35.061,59.326,43.907
				c21.279,9.253,42.848,12.773,63.75,12.77c20.899,0.004,42.469-3.517,63.745-12.77c20.361-8.846,40.398-22.946,59.334-43.914
				c5.149,3.619,10.42,7.603,15.662,11.957C393.837,414.699,392.995,415.252,392.309,416.037z M455.647,480.418
				c-8.736-24.695-22.584-44.76-42.049-63.431c-34.487-32.977-74.4-49.536-78.216-51.096c-3.12-1.68-5.831-3.144-8.568-4.416
				c-2.784-1.296-5.592-2.425-8.688-3.313c-5.664-1.631-12.096-2.544-21.6-3.144c-9.529-0.575-22.175-0.839-40.464-1.104h-0.144
				c-18.264,0.265-30.936,0.529-40.44,1.104c-9.504,0.6-15.96,1.513-21.6,3.144c-3.096,0.888-5.904,2.017-8.688,3.313
				c-2.735,1.271-5.471,2.735-8.592,4.416c-3.839,1.584-43.751,18.144-78.191,51.096c-19.465,18.671-33.313,38.736-42.073,63.431
				c-8.76,24.696-12.504,53.857-12.504,91.032v65.904h10.536V571.45c0-36.504,3.72-64.416,11.927-87.504
				c8.208-23.088,20.857-41.496,39.432-59.328c0.96-0.935,1.921-1.8,2.904-2.687c0.24,0.936,0.671,1.823,1.344,2.592
				c22.873,26.208,47.208,43.608,71.927,54.36c24.745,10.752,49.8,14.831,74.088,14.831s49.369-4.079,74.088-14.831
				c24.744-10.752,49.056-28.152,71.952-54.36c0.671-0.792,1.104-1.705,1.344-2.64c0.984,0.888,1.944,1.8,2.904,2.735
				c18.577,17.832,31.223,36.24,39.432,59.328c8.208,23.088,11.927,51,11.904,87.504v65.904h10.56V571.45
				C468.174,534.275,464.43,505.114,455.647,480.418z"></path>
			<path class="bodyB" d="M102.151,589.738v47.616H91.59v-47.616c0-2.904,2.352-5.28,5.28-5.28
				C99.774,584.458,102.151,586.834,102.151,589.738z"></path>
			<path class="bodyB" d="M420.414,589.738v47.616h-10.56v-47.616c0-2.904,2.375-5.28,5.279-5.28
				C418.038,584.458,420.414,586.834,420.414,589.738z"></path>
		</g>
	</g>
</g>


<g>
	<g>
		<path class="baseF" d="M370.823,211.356h-1.083C365.238,142.075,331.823,86.563,256,86.563s-109.238,55.512-113.74,124.793h-1.083    c-14.838-8.773-36.38,8.079-32.988,28.425c7.12,42.712,9.938,53.302,22.629,59.714c6.476,3.272,12.413,3.389,12.413,3.389h1.277    c4.228,26.864,12.675,46.636,23.503,61.72c16.545,23.044,59.074,47.137,87.989,47.137c28.915,0,71.445-24.094,87.989-47.137    c10.828-15.084,19.275-34.856,23.503-61.72h1.277c0,0,5.937-0.117,12.413-3.389c12.689-6.413,15.509-17.002,22.629-59.714    C407.203,219.435,385.661,202.583,370.823,211.356z"></path>
		<path class="baseB" d="M400.197,213.073c-6.568-6.81-16.304-11.004-25.737-8.755C368.747,134.944,329.975,80.52,256,81.287    c-74.235-0.864-112.896,54.299-118.444,123.035c-19.995-4.34-38.258,16.759-34.57,36.339l-0.001-0.011    c3.584,21.412,6.032,34.84,9.469,44.398c3.786,12.939,15.561,21.371,27.56,22.815c3.49,21.313,12.227,44.344,23.712,59.82    c19.76,25.929,59.709,48.411,92.275,49.338c32.904-0.946,72.797-23.732,92.275-49.337c11.483-15.481,20.216-38.503,23.711-59.821    c20.682-3.122,27.736-17.588,31.679-37.926c1.673-7.721,3.343-17.25,5.35-29.287l0.001-0.009    C410.841,230.515,406.844,219.747,400.197,213.073z M398.606,238.914c-3.537,21.3-6.057,34.522-8.984,42.54    c-2.885,8.629-7.803,13.034-15.94,15.273c0.934-7.446,1.571-15.359,1.868-23.806c0.102-2.913-2.176-5.356-5.089-5.458    c-2.912-0.102-5.355,2.176-5.457,5.089c-0.741,21.097-3.625,38.545-8.037,53.102c-7.684,23.201-15.096,37.185-32.968,51.943    c-17.576,14.384-46.071,28.758-67.999,28.868c-29.641-1.047-66.146-22.057-83.704-44.938c-6.917-9.64-12.849-21.314-17.265-35.874    c-4.412-14.557-7.295-32.005-8.034-53.102c-0.347-6.881-10.641-6.633-10.547,0.37h-0.001c0.296,8.449,0.935,16.366,1.869,23.813    c-14.102-3.734-16.335-14.595-19.67-29.034c-1.611-7.396-3.355-17.378-5.343-29.308l0.087,0.509    c-2.538-12.803,10.263-28.169,23.402-23.817c-0.209,4.296-0.347,8.62-0.348,12.994c0,2.914,2.363,5.277,5.277,5.277    c2.913,0,5.277-2.363,5.277-5.277l0,0c-0.579-71.264,30.158-137.1,109.001-136.238c44.048-0.349,77.728,20.487,94.871,59.825    c9.632,21.733,14.134,48.146,14.128,76.414c0,2.914,2.362,5.277,5.277,5.277c2.913,0,5.277-2.363,5.277-5.277    c0-4.374-0.12-8.706-0.329-13.001C388.325,210.72,401.15,226.151,398.606,238.914z"></path>
	</g>
</g>

<g>
	<path class="hairB" d="M425.789,195.207c-20.505-85.396-61.896-157.055-132.449-146.852c-36.993-32.762-84.453-5.722-107.687,7.115   c-47.087,26.015-84.466,77.376-99.439,139.737C63.48,289.878,48.041,322.347,64.136,388.216   c13.027,53.312,44.196,69.351,61.208,74.171c3.778,1.071,6.77-3.217,4.499-6.421c-4.914-6.933-10.944-17.807-13.024-31.478   c-0.336-2.21,2.711-3.129,3.727-1.139c12.093,23.688,43.525,54.925,87.628,48.073c3.658-0.568,4.901-5.217,1.931-7.425   c-14.539-10.811-37.701-40.259-50.799-106.432c-24.27-122.607,79.038-190.463,108.574-207.122   c4.924-2.777,8.326-7.637,9.319-13.202l5.707-31.96l4.317,29.436c0.992,6.766,6.361,18.557,10.433,24.051   c11.719,15.814,21.036,18.033,56.727,49.877l4.138,48.989c0.451,5.343,8.006,6.049,9.418,0.876   c1.186-4.345,2.307-9.051,3.179-13.856c1.164-6.411,2.636-11.934,4.331-16.577c38.194-23.046,13.937,51.397-5.17,52.691   c0,40.459-13.744,54.598-17.58,76.797c-11.487,66.456-36.25,95.607-50.79,106.425c-2.982,2.219-1.736,6.865,1.938,7.435   c44.094,6.841,75.519-24.39,87.61-48.075c1.017-1.991,4.064-1.072,3.728,1.138c-2.08,13.672-8.109,24.546-13.024,31.478   c-2.271,3.204,0.721,7.492,4.499,6.421c17.013-4.82,48.182-20.859,61.208-74.171C463.96,322.347,448.521,289.878,425.789,195.207z"></path>
</g>

<g>
	<path class="mouthB" d="M237.869,348.245c1.402,0.558,2.757,0.839,4.082,0.991c0.175,5.527,0.748,10.695,2.235,15.035
		c0.923,2.644,2.204,5.058,4.21,6.945c1.982,1.901,4.806,3.066,7.771,3.033c2.964,0.033,5.788-1.132,7.77-3.033
		c2.996-2.859,4.419-6.773,5.337-11.13c0.676-3.314,0.94-7.02,1.063-10.847c1.333-0.148,2.705-0.427,4.13-0.998
		c1.969-0.787,2.926-3.023,2.139-4.992c-0.788-1.969-3.022-2.925-4.99-2.137l-0.001-0.002c-1.18,0.469-2.047,0.602-2.781,0.605
		c-1.484,0.005-2.774-0.609-4.707-1.732c-0.951-0.544-2.019-1.191-3.321-1.748c-1.293-0.555-2.868-1.012-4.64-1.01
		c-1.773-0.002-3.349,0.455-4.644,1.01c-1.948,0.846-3.395,1.852-4.662,2.494c-1.278,0.659-2.235,0.984-3.369,0.989
		c-0.721-0.002-1.598-0.138-2.788-0.609c-1.972-0.785-4.205,0.178-4.988,2.152C234.934,345.229,235.898,347.46,237.869,348.245z"></path>
	<path class="mouthF" d="M252.037,346.635c0.996-0.577,1.827-1.055,2.5-1.338c0.681-0.288,1.155-0.391,1.63-0.394
		c0.473,0.002,0.946,0.105,1.626,0.394c1.014,0.415,2.36,1.308,4.133,2.243c0.249,0.131,0.536,0.255,0.807,0.384
		c-0.118,5.538-0.677,10.528-1.842,13.83c-0.65,1.894-1.464,3.178-2.199,3.853c-0.759,0.666-1.325,0.928-2.525,0.961
		c-1.201-0.033-1.767-0.295-2.526-0.961c-1.117-0.984-2.349-3.466-3.057-7.062c-0.613-2.984-0.913-6.663-0.997-10.631
		C250.499,347.483,251.341,347.033,252.037,346.635z"></path>
</g>


<g>
	<path class="noseB" d="M265.128,318.582c0,2.602-3.748,4.711-8.367,4.711c-4.622,0-8.37-2.109-8.37-4.711s3.748,0,8.37,0
		C261.381,318.582,265.128,315.981,265.128,318.582z"></path>
</g>


<g>
	<path class="eyeB" d="M176.333,267.614c-0.239,0.975-2.222,1.172-5.344,0.138c-3.117-1.031-4.65-2.398-4.327-3.349
		c0.319-0.949,2.316-1.144,5.344-0.138C175.03,265.27,176.572,266.639,176.333,267.614z"></path>
	<path class="eyeB" d="M176.333,279.71c0.586,0.82-0.764,2.613-3.722,3.487c-2.859,0.827-4.397,0.661-4.898-0.199
		c-0.525-0.893,1.022-2.473,3.811-3.267C174.215,278.93,175.757,278.871,176.333,279.71z"></path>
	<path class="eyeB" d="M335.685,267.614c-0.239-0.975,1.303-2.344,4.327-3.349c3.028-1.005,5.025-0.811,5.344,0.138
		c0.323,0.952-1.209,2.318-4.327,3.349C337.907,268.786,335.924,268.589,335.685,267.614z"></path>
	<path class="eyeB" d="M335.685,279.71c0.577-0.839,2.119-0.78,4.809,0.021c2.789,0.795,4.336,2.374,3.811,3.267
		c-0.502,0.86-2.039,1.027-4.898,0.199C336.449,282.324,335.099,280.531,335.685,279.71z"></path>
	<path class="eyeB" d="M234.575,290.328c-4.364,0-9.492-2.812-14.822-8.133c-1.467-1.811-4.13-2.943-6.839-2.943
		c-1.828,0-3.52,0.516-4.777,1.452c-5.822,6.195-11.498,9.514-16.327,9.514c-6.089,0-10.247-5.299-10.341-13.185
		c-0.131-10.864,8.264-27.236,31.922-27.806c23.236,0.49,31.486,16.931,31.373,27.862
		C244.682,285.007,240.585,290.328,234.575,290.328L234.575,290.328z"></path>
	<path class="eyeF" d="M213.409,256.124c14.729,0.783,23.883,9.125,24.952,21.124c-0.661,5.821-2.774,5.707-5.68,5.914
		c-7.782-1.331-9.032-11.379-19.343-10.871c-10.504-0.849-12.133,9.393-19.954,10.865c-2.829-0.17-4.927-0.366-5.394-6.355
		C189.292,264.78,198.713,256.627,213.409,256.124"></path>
	<circle class="eyeB" cx="212.362" cy="260.823" r="8.927"></circle>
	<path class="eyeB" d="M320.343,290.328c-4.364,0-9.492-2.812-14.822-8.133c-1.467-1.811-4.13-2.943-6.839-2.943
		c-1.828,0-3.52,0.516-4.777,1.452c-5.822,6.195-11.498,9.514-16.327,9.514c-6.089,0-10.247-5.299-10.341-13.185
		c-0.131-10.864,8.264-27.236,31.922-27.806c23.236,0.49,31.486,16.931,31.373,27.862
		C330.449,285.007,326.352,290.328,320.343,290.328L320.343,290.328z"></path>
	<path class="eyeF" d="M299.178,256.124c14.729,0.783,23.883,9.125,24.952,21.124c-0.661,5.821-2.774,5.707-5.68,5.914
		c-7.782-1.331-9.032-11.379-19.343-10.871c-10.504-0.849-12.133,9.393-19.954,10.865c-2.829-0.17-4.927-0.366-5.394-6.355
		C275.06,264.78,284.482,256.627,299.178,256.124"></path>
	<circle class="eyeB" cx="298.131" cy="260.823" r="8.927"></circle>
</g>


<g>
	<g>
		<g>
			<path class="mayugeB" d="M232.629,239.337c-14.887-9.778-34.163-9.778-49.055,0c0-5.06,0-10.123,0-15.185
				c14.89-9.778,34.165-9.778,49.055,0C232.629,229.214,232.629,234.277,232.629,239.337z"></path>
		</g>
		<g>
			<path class="mayugeB" d="M328.427,239.337c-14.887-9.778-34.162-9.778-49.055,0c0-5.06,0-10.123,0-15.185
				c14.89-9.778,34.165-9.778,49.055,0C328.427,229.214,328.427,234.277,328.427,239.337z"></path>
		</g>
	</g>
</g>


<g>
	<path class="kirakiraB" d="M183.316,309.848c-1.059,0.619-1.988,1.812-2.803,3.415c-1.734,3.237-2.119,5.348-1.369,5.655
		c0.741,0.305,2.278-1.165,3.886-4.167c1.519-3.293,2.33-4.141,2.208-4.955C185.144,309.424,184.357,309.227,183.316,309.848z"></path>
	<path class="kirakiraB" d="M191.266,309.891c-2.297,3.178-2.292,5.606-1.575,5.841c0.802,0.293,1.955-1.402,3.919-4.095
		c2.002-2.66,3.319-4.179,2.836-4.882C196.047,306.108,193.643,306.757,191.266,309.891z"></path>
	<path class="kirakiraB" d="M202.113,307.657c-2.109,2.459-2.377,4.453-1.697,4.828c0.727,0.412,2.044-0.755,3.9-2.909
		c1.875-2.133,2.855-3.57,2.362-4.24C206.228,304.701,204.26,305.226,202.113,307.657z"></path>
	<path class="kirakiraB" d="M210.325,307.596c-1.739,2.538-1.2,4.521-0.45,4.589c0.834,0.134,1.566-1.087,2.827-2.887
		c1.298-1.774,2.217-2.859,1.819-3.607C214.216,304.999,212.163,305.133,210.325,307.596z"></path>
	<path class="kirakiraB" d="M328.685,309.848c-1.041-0.621-1.828-0.424-1.922-0.052c-0.127,0.813,0.684,1.662,2.203,4.955
		c1.608,3.002,3.145,4.472,3.891,4.167c0.75-0.307,0.366-2.419-1.369-5.655C330.672,311.66,329.744,310.467,328.685,309.848z"></path>
	<path class="kirakiraB" d="M315.555,306.755c-0.483,0.703,0.83,2.222,2.836,4.882c1.964,2.693,3.117,4.388,3.914,4.095
		c0.717-0.234,0.727-2.663-1.57-5.841C318.358,306.757,315.953,306.108,315.555,306.755z"></path>
	<path class="kirakiraB" d="M305.322,305.337c-0.492,0.67,0.488,2.107,2.363,4.24c1.856,2.154,3.173,3.321,3.895,2.909
		c0.68-0.375,0.417-2.37-1.692-4.828C307.741,305.226,305.772,304.701,305.322,305.337z"></path>
	<path class="kirakiraB" d="M297.475,305.691c-0.394,0.748,0.525,1.833,1.823,3.607c1.261,1.8,1.988,3.021,2.827,2.887
		c0.75-0.068,1.284-2.051-0.45-4.589C299.838,305.133,297.785,304.999,297.475,305.691z"></path>
</g>

</g></svg>